<svg xmlns="http://www.w3.org/2000/svg" version="1.1" xmlns:xlink="http://www.w3.org/1999/xlink" xmlns:svgjs="http://svgjs.dev/svgjs" viewBox="0 0 800 800"><defs><linearGradient gradientTransform="rotate(270)" x1="50%" y1="0%" x2="50%" y2="100%" id="sssquiggly-grad"><stop stop-color="#5d00ffff" stop-opacity="1" offset="0%"></stop><stop stop-color="hsl(331, 90%, 56%)" stop-opacity="1" offset="100%"></stop></linearGradient></defs><g stroke-width="2" stroke="url(#sssquiggly-grad)" fill="none" stroke-linecap="round" transform="matrix(1,0,0,1,0,221.5875244140625)"><path d="M10,10C21.805555555555557,11.25,40.97222222222223,24.75,66.66666666666667,16C92.36111111111111,7.25,105.55555555555557,-35.541666666666664,133.33333333333334,-32C161.11111111111111,-28.458333333333332,172.22222222222223,31.333333333333332,200,33C227.77777777777777,34.666666666666664,238.8888888888889,-21.5,266.6666666666667,-24C294.44444444444446,-26.5,305.5555555555556,17.875,333.33333333333337,21C361.11111111111114,24.125,372.22222222222223,-14.416666666666666,400,-9C427.77777777777777,-3.583333333333334,438.8888888888889,45.541666666666664,466.6666666666667,47C494.44444444444446,48.458333333333336,505.5555555555556,0.708333333333333,533.3333333333334,-2C561.1111111111111,-4.708333333333333,572.2222222222222,34.208333333333336,600,34C627.7777777777778,33.791666666666664,638.8888888888889,-2.5833333333333335,666.6666666666667,-3C694.4444444444446,-3.4166666666666665,707.6388888888889,29.291666666666668,733.3333333333334,32C759.0277777777778,34.708333333333336,778.1944444444445,14.583333333333332,790,10"></path><path d="M10,10C21.805555555555557,11.25,40.97222222222223,24.75,66.66666666666667,16C92.36111111111111,7.25,105.55555555555557,-35.541666666666664,133.33333333333334,-32C161.11111111111111,-28.458333333333332,172.22222222222223,31.333333333333332,200,33C227.77777777777777,34.666666666666664,238.8888888888889,-21.5,266.6666666666667,-24C294.44444444444446,-26.5,305.5555555555556,17.875,333.33333333333337,21C361.11111111111114,24.125,372.22222222222223,-14.416666666666666,400,-9C427.77777777777777,-3.583333333333334,438.8888888888889,45.541666666666664,466.6666666666667,47C494.44444444444446,48.458333333333336,505.5555555555556,0.708333333333333,533.3333333333334,-2C561.1111111111111,-4.708333333333333,572.2222222222222,34.208333333333336,600,34C627.7777777777778,33.791666666666664,638.8888888888889,-2.5833333333333335,666.6666666666667,-3C694.4444444444446,-3.4166666666666665,707.6388888888889,29.291666666666668,733.3333333333334,32C759.0277777777778,34.708333333333336,778.1944444444445,14.583333333333332,790,10" transform="matrix(1,0,0,1,0,342)"></path><path d="M10,10C21.805555555555557,11.25,40.97222222222223,24.75,66.66666666666667,16C92.36111111111111,7.25,105.55555555555557,-35.541666666666664,133.33333333333334,-32C161.11111111111111,-28.458333333333332,172.22222222222223,31.333333333333332,200,33C227.77777777777777,34.666666666666664,238.8888888888889,-21.5,266.6666666666667,-24C294.44444444444446,-26.5,305.5555555555556,17.875,333.33333333333337,21C361.11111111111114,24.125,372.22222222222223,-14.416666666666666,400,-9C427.77777777777777,-3.583333333333334,438.8888888888889,45.541666666666664,466.6666666666667,47C494.44444444444446,48.458333333333336,505.5555555555556,0.708333333333333,533.3333333333334,-2C561.1111111111111,-4.708333333333333,572.2222222222222,34.208333333333336,600,34C627.7777777777778,33.791666666666664,638.8888888888889,-2.5833333333333335,666.6666666666667,-3C694.4444444444446,-3.4166666666666665,707.6388888888889,29.291666666666668,733.3333333333334,32C759.0277777777778,34.708333333333336,778.1944444444445,14.583333333333332,790,10" transform="matrix(1,0,0,1,0,324)"></path><path d="M10,10C21.805555555555557,11.25,40.97222222222223,24.75,66.66666666666667,16C92.36111111111111,7.25,105.55555555555557,-35.541666666666664,133.33333333333334,-32C161.11111111111111,-28.458333333333332,172.22222222222223,31.333333333333332,200,33C227.77777777777777,34.666666666666664,238.8888888888889,-21.5,266.6666666666667,-24C294.44444444444446,-26.5,305.5555555555556,17.875,333.33333333333337,21C361.11111111111114,24.125,372.22222222222223,-14.416666666666666,400,-9C427.77777777777777,-3.583333333333334,438.8888888888889,45.541666666666664,466.6666666666667,47C494.44444444444446,48.458333333333336,505.5555555555556,0.708333333333333,533.3333333333334,-2C561.1111111111111,-4.708333333333333,572.2222222222222,34.208333333333336,600,34C627.7777777777778,33.791666666666664,638.8888888888889,-2.5833333333333335,666.6666666666667,-3C694.4444444444446,-3.4166666666666665,707.6388888888889,29.291666666666668,733.3333333333334,32C759.0277777777778,34.708333333333336,778.1944444444445,14.583333333333332,790,10" transform="matrix(1,0,0,1,0,306)"></path><path d="M10,10C21.805555555555557,11.25,40.97222222222223,24.75,66.66666666666667,16C92.36111111111111,7.25,105.55555555555557,-35.541666666666664,133.33333333333334,-32C161.11111111111111,-28.458333333333332,172.22222222222223,31.333333333333332,200,33C227.77777777777777,34.666666666666664,238.8888888888889,-21.5,266.6666666666667,-24C294.44444444444446,-26.5,305.5555555555556,17.875,333.33333333333337,21C361.11111111111114,24.125,372.22222222222223,-14.416666666666666,400,-9C427.77777777777777,-3.583333333333334,438.8888888888889,45.541666666666664,466.6666666666667,47C494.44444444444446,48.458333333333336,505.5555555555556,0.708333333333333,533.3333333333334,-2C561.1111111111111,-4.708333333333333,572.2222222222222,34.208333333333336,600,34C627.7777777777778,33.791666666666664,638.8888888888889,-2.5833333333333335,666.6666666666667,-3C694.4444444444446,-3.4166666666666665,707.6388888888889,29.291666666666668,733.3333333333334,32C759.0277777777778,34.708333333333336,778.1944444444445,14.583333333333332,790,10" transform="matrix(1,0,0,1,0,288)"></path><path d="M10,10C21.805555555555557,11.25,40.97222222222223,24.75,66.66666666666667,16C92.36111111111111,7.25,105.55555555555557,-35.541666666666664,133.33333333333334,-32C161.11111111111111,-28.458333333333332,172.22222222222223,31.333333333333332,200,33C227.77777777777777,34.666666666666664,238.8888888888889,-21.5,266.6666666666667,-24C294.44444444444446,-26.5,305.5555555555556,17.875,333.33333333333337,21C361.11111111111114,24.125,372.22222222222223,-14.416666666666666,400,-9C427.77777777777777,-3.583333333333334,438.8888888888889,45.541666666666664,466.6666666666667,47C494.44444444444446,48.458333333333336,505.5555555555556,0.708333333333333,533.3333333333334,-2C561.1111111111111,-4.708333333333333,572.2222222222222,34.208333333333336,600,34C627.7777777777778,33.791666666666664,638.8888888888889,-2.5833333333333335,666.6666666666667,-3C694.4444444444446,-3.4166666666666665,707.6388888888889,29.291666666666668,733.3333333333334,32C759.0277777777778,34.708333333333336,778.1944444444445,14.583333333333332,790,10" transform="matrix(1,0,0,1,0,270)"></path><path d="M10,10C21.805555555555557,11.25,40.97222222222223,24.75,66.66666666666667,16C92.36111111111111,7.25,105.55555555555557,-35.541666666666664,133.33333333333334,-32C161.11111111111111,-28.458333333333332,172.22222222222223,31.333333333333332,200,33C227.77777777777777,34.666666666666664,238.8888888888889,-21.5,266.6666666666667,-24C294.44444444444446,-26.5,305.5555555555556,17.875,333.33333333333337,21C361.11111111111114,24.125,372.22222222222223,-14.416666666666666,400,-9C427.77777777777777,-3.583333333333334,438.8888888888889,45.541666666666664,466.6666666666667,47C494.44444444444446,48.458333333333336,505.5555555555556,0.708333333333333,533.3333333333334,-2C561.1111111111111,-4.708333333333333,572.2222222222222,34.208333333333336,600,34C627.7777777777778,33.791666666666664,638.8888888888889,-2.5833333333333335,666.6666666666667,-3C694.4444444444446,-3.4166666666666665,707.6388888888889,29.291666666666668,733.3333333333334,32C759.0277777777778,34.708333333333336,778.1944444444445,14.583333333333332,790,10" transform="matrix(1,0,0,1,0,252)"></path><path d="M10,10C21.805555555555557,11.25,40.97222222222223,24.75,66.66666666666667,16C92.36111111111111,7.25,105.55555555555557,-35.541666666666664,133.33333333333334,-32C161.11111111111111,-28.458333333333332,172.22222222222223,31.333333333333332,200,33C227.77777777777777,34.666666666666664,238.8888888888889,-21.5,266.6666666666667,-24C294.44444444444446,-26.5,305.5555555555556,17.875,333.33333333333337,21C361.11111111111114,24.125,372.22222222222223,-14.416666666666666,400,-9C427.77777777777777,-3.583333333333334,438.8888888888889,45.541666666666664,466.6666666666667,47C494.44444444444446,48.458333333333336,505.5555555555556,0.708333333333333,533.3333333333334,-2C561.1111111111111,-4.708333333333333,572.2222222222222,34.208333333333336,600,34C627.7777777777778,33.791666666666664,638.8888888888889,-2.5833333333333335,666.6666666666667,-3C694.4444444444446,-3.4166666666666665,707.6388888888889,29.291666666666668,733.3333333333334,32C759.0277777777778,34.708333333333336,778.1944444444445,14.583333333333332,790,10" transform="matrix(1,0,0,1,0,234)"></path><path d="M10,10C21.805555555555557,11.25,40.97222222222223,24.75,66.66666666666667,16C92.36111111111111,7.25,105.55555555555557,-35.541666666666664,133.33333333333334,-32C161.11111111111111,-28.458333333333332,172.22222222222223,31.333333333333332,200,33C227.77777777777777,34.666666666666664,238.8888888888889,-21.5,266.6666666666667,-24C294.44444444444446,-26.5,305.5555555555556,17.875,333.33333333333337,21C361.11111111111114,24.125,372.22222222222223,-14.416666666666666,400,-9C427.77777777777777,-3.583333333333334,438.8888888888889,45.541666666666664,466.6666666666667,47C494.44444444444446,48.458333333333336,505.5555555555556,0.708333333333333,533.3333333333334,-2C561.1111111111111,-4.708333333333333,572.2222222222222,34.208333333333336,600,34C627.7777777777778,33.791666666666664,638.8888888888889,-2.5833333333333335,666.6666666666667,-3C694.4444444444446,-3.4166666666666665,707.6388888888889,29.291666666666668,733.3333333333334,32C759.0277777777778,34.708333333333336,778.1944444444445,14.583333333333332,790,10" transform="matrix(1,0,0,1,0,216)"></path><path d="M10,10C21.805555555555557,11.25,40.97222222222223,24.75,66.66666666666667,16C92.36111111111111,7.25,105.55555555555557,-35.541666666666664,133.33333333333334,-32C161.11111111111111,-28.458333333333332,172.22222222222223,31.333333333333332,200,33C227.77777777777777,34.666666666666664,238.8888888888889,-21.5,266.6666666666667,-24C294.44444444444446,-26.5,305.5555555555556,17.875,333.33333333333337,21C361.11111111111114,24.125,372.22222222222223,-14.416666666666666,400,-9C427.77777777777777,-3.583333333333334,438.8888888888889,45.541666666666664,466.6666666666667,47C494.44444444444446,48.458333333333336,505.5555555555556,0.708333333333333,533.3333333333334,-2C561.1111111111111,-4.708333333333333,572.2222222222222,34.208333333333336,600,34C627.7777777777778,33.791666666666664,638.8888888888889,-2.5833333333333335,666.6666666666667,-3C694.4444444444446,-3.4166666666666665,707.6388888888889,29.291666666666668,733.3333333333334,32C759.0277777777778,34.708333333333336,778.1944444444445,14.583333333333332,790,10" transform="matrix(1,0,0,1,0,198)"></path><path d="M10,10C21.805555555555557,11.25,40.97222222222223,24.75,66.66666666666667,16C92.36111111111111,7.25,105.55555555555557,-35.541666666666664,133.33333333333334,-32C161.11111111111111,-28.458333333333332,172.22222222222223,31.333333333333332,200,33C227.77777777777777,34.666666666666664,238.8888888888889,-21.5,266.6666666666667,-24C294.44444444444446,-26.5,305.5555555555556,17.875,333.33333333333337,21C361.11111111111114,24.125,372.22222222222223,-14.416666666666666,400,-9C427.77777777777777,-3.583333333333334,438.8888888888889,45.541666666666664,466.6666666666667,47C494.44444444444446,48.458333333333336,505.5555555555556,0.708333333333333,533.3333333333334,-2C561.1111111111111,-4.708333333333333,572.2222222222222,34.208333333333336,600,34C627.7777777777778,33.791666666666664,638.8888888888889,-2.5833333333333335,666.6666666666667,-3C694.4444444444446,-3.4166666666666665,707.6388888888889,29.291666666666668,733.3333333333334,32C759.0277777777778,34.708333333333336,778.1944444444445,14.583333333333332,790,10" transform="matrix(1,0,0,1,0,180)"></path><path d="M10,10C21.805555555555557,11.25,40.97222222222223,24.75,66.66666666666667,16C92.36111111111111,7.25,105.55555555555557,-35.541666666666664,133.33333333333334,-32C161.11111111111111,-28.458333333333332,172.22222222222223,31.333333333333332,200,33C227.77777777777777,34.666666666666664,238.8888888888889,-21.5,266.6666666666667,-24C294.44444444444446,-26.5,305.5555555555556,17.875,333.33333333333337,21C361.11111111111114,24.125,372.22222222222223,-14.416666666666666,400,-9C427.77777777777777,-3.583333333333334,438.8888888888889,45.541666666666664,466.6666666666667,47C494.44444444444446,48.458333333333336,505.5555555555556,0.708333333333333,533.3333333333334,-2C561.1111111111111,-4.708333333333333,572.2222222222222,34.208333333333336,600,34C627.7777777777778,33.791666666666664,638.8888888888889,-2.5833333333333335,666.6666666666667,-3C694.4444444444446,-3.4166666666666665,707.6388888888889,29.291666666666668,733.3333333333334,32C759.0277777777778,34.708333333333336,778.1944444444445,14.583333333333332,790,10" transform="matrix(1,0,0,1,0,162)"></path><path d="M10,10C21.805555555555557,11.25,40.97222222222223,24.75,66.66666666666667,16C92.36111111111111,7.25,105.55555555555557,-35.541666666666664,133.33333333333334,-32C161.11111111111111,-28.458333333333332,172.22222222222223,31.333333333333332,200,33C227.77777777777777,34.666666666666664,238.8888888888889,-21.5,266.6666666666667,-24C294.44444444444446,-26.5,305.5555555555556,17.875,333.33333333333337,21C361.11111111111114,24.125,372.22222222222223,-14.416666666666666,400,-9C427.77777777777777,-3.583333333333334,438.8888888888889,45.541666666666664,466.6666666666667,47C494.44444444444446,48.458333333333336,505.5555555555556,0.708333333333333,533.3333333333334,-2C561.1111111111111,-4.708333333333333,572.2222222222222,34.208333333333336,600,34C627.7777777777778,33.791666666666664,638.8888888888889,-2.5833333333333335,666.6666666666667,-3C694.4444444444446,-3.4166666666666665,707.6388888888889,29.291666666666668,733.3333333333334,32C759.0277777777778,34.708333333333336,778.1944444444445,14.583333333333332,790,10" transform="matrix(1,0,0,1,0,144)"></path><path d="M10,10C21.805555555555557,11.25,40.97222222222223,24.75,66.66666666666667,16C92.36111111111111,7.25,105.55555555555557,-35.541666666666664,133.33333333333334,-32C161.11111111111111,-28.458333333333332,172.22222222222223,31.333333333333332,200,33C227.77777777777777,34.666666666666664,238.8888888888889,-21.5,266.6666666666667,-24C294.44444444444446,-26.5,305.5555555555556,17.875,333.33333333333337,21C361.11111111111114,24.125,372.22222222222223,-14.416666666666666,400,-9C427.77777777777777,-3.583333333333334,438.8888888888889,45.541666666666664,466.6666666666667,47C494.44444444444446,48.458333333333336,505.5555555555556,0.708333333333333,533.3333333333334,-2C561.1111111111111,-4.708333333333333,572.2222222222222,34.208333333333336,600,34C627.7777777777778,33.791666666666664,638.8888888888889,-2.5833333333333335,666.6666666666667,-3C694.4444444444446,-3.4166666666666665,707.6388888888889,29.291666666666668,733.3333333333334,32C759.0277777777778,34.708333333333336,778.1944444444445,14.583333333333332,790,10" transform="matrix(1,0,0,1,0,126)"></path><path d="M10,10C21.805555555555557,11.25,40.97222222222223,24.75,66.66666666666667,16C92.36111111111111,7.25,105.55555555555557,-35.541666666666664,133.33333333333334,-32C161.11111111111111,-28.458333333333332,172.22222222222223,31.333333333333332,200,33C227.77777777777777,34.666666666666664,238.8888888888889,-21.5,266.6666666666667,-24C294.44444444444446,-26.5,305.5555555555556,17.875,333.33333333333337,21C361.11111111111114,24.125,372.22222222222223,-14.416666666666666,400,-9C427.77777777777777,-3.583333333333334,438.8888888888889,45.541666666666664,466.6666666666667,47C494.44444444444446,48.458333333333336,505.5555555555556,0.708333333333333,533.3333333333334,-2C561.1111111111111,-4.708333333333333,572.2222222222222,34.208333333333336,600,34C627.7777777777778,33.791666666666664,638.8888888888889,-2.5833333333333335,666.6666666666667,-3C694.4444444444446,-3.4166666666666665,707.6388888888889,29.291666666666668,733.3333333333334,32C759.0277777777778,34.708333333333336,778.1944444444445,14.583333333333332,790,10" transform="matrix(1,0,0,1,0,108)"></path><path d="M10,10C21.805555555555557,11.25,40.97222222222223,24.75,66.66666666666667,16C92.36111111111111,7.25,105.55555555555557,-35.541666666666664,133.33333333333334,-32C161.11111111111111,-28.458333333333332,172.22222222222223,31.333333333333332,200,33C227.77777777777777,34.666666666666664,238.8888888888889,-21.5,266.6666666666667,-24C294.44444444444446,-26.5,305.5555555555556,17.875,333.33333333333337,21C361.11111111111114,24.125,372.22222222222223,-14.416666666666666,400,-9C427.77777777777777,-3.583333333333334,438.8888888888889,45.541666666666664,466.6666666666667,47C494.44444444444446,48.458333333333336,505.5555555555556,0.708333333333333,533.3333333333334,-2C561.1111111111111,-4.708333333333333,572.2222222222222,34.208333333333336,600,34C627.7777777777778,33.791666666666664,638.8888888888889,-2.5833333333333335,666.6666666666667,-3C694.4444444444446,-3.4166666666666665,707.6388888888889,29.291666666666668,733.3333333333334,32C759.0277777777778,34.708333333333336,778.1944444444445,14.583333333333332,790,10" transform="matrix(1,0,0,1,0,90)"></path><path d="M10,10C21.805555555555557,11.25,40.97222222222223,24.75,66.66666666666667,16C92.36111111111111,7.25,105.55555555555557,-35.541666666666664,133.33333333333334,-32C161.11111111111111,-28.458333333333332,172.22222222222223,31.333333333333332,200,33C227.77777777777777,34.666666666666664,238.8888888888889,-21.5,266.6666666666667,-24C294.44444444444446,-26.5,305.5555555555556,17.875,333.33333333333337,21C361.11111111111114,24.125,372.22222222222223,-14.416666666666666,400,-9C427.77777777777777,-3.583333333333334,438.8888888888889,45.541666666666664,466.6666666666667,47C494.44444444444446,48.458333333333336,505.5555555555556,0.708333333333333,533.3333333333334,-2C561.1111111111111,-4.708333333333333,572.2222222222222,34.208333333333336,600,34C627.7777777777778,33.791666666666664,638.8888888888889,-2.5833333333333335,666.6666666666667,-3C694.4444444444446,-3.4166666666666665,707.6388888888889,29.291666666666668,733.3333333333334,32C759.0277777777778,34.708333333333336,778.1944444444445,14.583333333333332,790,10" transform="matrix(1,0,0,1,0,72)"></path><path d="M10,10C21.805555555555557,11.25,40.97222222222223,24.75,66.66666666666667,16C92.36111111111111,7.25,105.55555555555557,-35.541666666666664,133.33333333333334,-32C161.11111111111111,-28.458333333333332,172.22222222222223,31.333333333333332,200,33C227.77777777777777,34.666666666666664,238.8888888888889,-21.5,266.6666666666667,-24C294.44444444444446,-26.5,305.5555555555556,17.875,333.33333333333337,21C361.11111111111114,24.125,372.22222222222223,-14.416666666666666,400,-9C427.77777777777777,-3.583333333333334,438.8888888888889,45.541666666666664,466.6666666666667,47C494.44444444444446,48.458333333333336,505.5555555555556,0.708333333333333,533.3333333333334,-2C561.1111111111111,-4.708333333333333,572.2222222222222,34.208333333333336,600,34C627.7777777777778,33.791666666666664,638.8888888888889,-2.5833333333333335,666.6666666666667,-3C694.4444444444446,-3.4166666666666665,707.6388888888889,29.291666666666668,733.3333333333334,32C759.0277777777778,34.708333333333336,778.1944444444445,14.583333333333332,790,10" transform="matrix(1,0,0,1,0,54)"></path><path d="M10,10C21.805555555555557,11.25,40.97222222222223,24.75,66.66666666666667,16C92.36111111111111,7.25,105.55555555555557,-35.541666666666664,133.33333333333334,-32C161.11111111111111,-28.458333333333332,172.22222222222223,31.333333333333332,200,33C227.77777777777777,34.666666666666664,238.8888888888889,-21.5,266.6666666666667,-24C294.44444444444446,-26.5,305.5555555555556,17.875,333.33333333333337,21C361.11111111111114,24.125,372.22222222222223,-14.416666666666666,400,-9C427.77777777777777,-3.583333333333334,438.8888888888889,45.541666666666664,466.6666666666667,47C494.44444444444446,48.458333333333336,505.5555555555556,0.708333333333333,533.3333333333334,-2C561.1111111111111,-4.708333333333333,572.2222222222222,34.208333333333336,600,34C627.7777777777778,33.791666666666664,638.8888888888889,-2.5833333333333335,666.6666666666667,-3C694.4444444444446,-3.4166666666666665,707.6388888888889,29.291666666666668,733.3333333333334,32C759.0277777777778,34.708333333333336,778.1944444444445,14.583333333333332,790,10" transform="matrix(1,0,0,1,0,36)"></path><path d="M10,10C21.805555555555557,11.25,40.97222222222223,24.75,66.66666666666667,16C92.36111111111111,7.25,105.55555555555557,-35.541666666666664,133.33333333333334,-32C161.11111111111111,-28.458333333333332,172.22222222222223,31.333333333333332,200,33C227.77777777777777,34.666666666666664,238.8888888888889,-21.5,266.6666666666667,-24C294.44444444444446,-26.5,305.5555555555556,17.875,333.33333333333337,21C361.11111111111114,24.125,372.22222222222223,-14.416666666666666,400,-9C427.77777777777777,-3.583333333333334,438.8888888888889,45.541666666666664,466.6666666666667,47C494.44444444444446,48.458333333333336,505.5555555555556,0.708333333333333,533.3333333333334,-2C561.1111111111111,-4.708333333333333,572.2222222222222,34.208333333333336,600,34C627.7777777777778,33.791666666666664,638.8888888888889,-2.5833333333333335,666.6666666666667,-3C694.4444444444446,-3.4166666666666665,707.6388888888889,29.291666666666668,733.3333333333334,32C759.0277777777778,34.708333333333336,778.1944444444445,14.583333333333332,790,10" transform="matrix(1,0,0,1,0,18)"></path></g></svg>