<svg xmlns="http://www.w3.org/2000/svg" version="1.1" xmlns:xlink="http://www.w3.org/1999/xlink" xmlns:svgjs="http://svgjs.dev/svgjs" viewBox="0 0 800 800"><defs><linearGradient x1="50%" y1="0%" x2="50%" y2="100%" id="wwwhirl-grad"><stop stop-color="#5d00ffff" stop-opacity="1" offset="45%"></stop><stop stop-color="hsl(331, 90%, 56%)" stop-opacity="1" offset="100%"></stop></linearGradient></defs><g stroke-width="2" stroke="url(#wwwhirl-grad)" fill="none" stroke-linecap="round"><path d="M37.00000251770027 453.96645051943403C50.75000289917 438.9102001017247 75.50000358581553 383.9651985773716 103.000004348755 381.6964485144291C130.50000511169446 379.4276984514866 141.5000054168703 444.93270026880845 169.00000617980973 443.07645021731C196.5000069427492 441.2202001658116 207.50000724792503 373.8176982958469 235.00000801086446 372.7864482672367C262.500008773804 371.75519823862646 273.5000090789798 443.69520023447615 301.0000098419193 438.12645007998094C328.50001060485874 432.5576999254857 339.5000109100345 344.4064474798832 367.000011672974 346.05644752565956C394.50001243591345 347.7064475714359 405.5000127410893 436.55895003649334 433.0000135040287 446.0464502997075C460.5000142669682 455.5339505629216 471.50001457214404 392.62769881769754 499.0000153350834 391.59644878908733C526.5000160980228 390.5651987604771 537.5000164031987 443.777700236765 565.0000171661382 441.09645016237835C592.5000179290777 438.41520008799176 603.5000182342535 380.99519849497415 631.000018997193 378.72644843203165C658.5000197601325 376.45769836908914 669.5000200653083 425.66894973436933 697.0000208282477 430.20644986025434C724.5000215911871 434.74394998613934 749.2500222778326 406.6939492079411 763.0000226593024 400.5064490362797 " transform="rotate(198, 400, 400)"></path><path d="M48.00000244140632 452.3310983321368C61.33333614464971 437.7310979270852 85.3333368104878 384.45109644892466 112.00000421697456 382.25109638788956C138.6666716234613 380.05109632685435 149.33333858605602 443.5710980891059 176.00000599254278 441.771098039168C202.66667339902952 439.97109798923015 213.33334036162427 374.6110961759311 240.000007768111 373.6110961481878C266.6666751745978 372.6110961204446 277.3333421371925 442.37109805581395 304.00000954367925 436.9710979060004C330.66667695016605 431.5710977561868 341.3333439127607 346.0910953846935 368.00001131924745 347.6910954290827C394.66667872573424 349.2910954734719 405.33334568832896 435.4510978638306 432.00001309481576 444.6510981190686C458.66668050130244 453.8510983743065 469.3333474638972 392.85109668196804 496.0000148703839 391.85109665422476C522.6666822768707 390.85109662648154 533.3333492394653 442.4510980580334 560.0000166459522 439.85109798590094C586.666684052439 437.2510979137685 597.3333510150337 381.57109636902413 624.0000184215204 379.371096307989C650.6666858280073 377.1710962469538 661.3333527906019 424.89109757086186 688.0000201970887 429.29109769293217C714.6666876035754 433.69109781500254 738.6666882694134 406.491097060386 752.0000219726569 400.4910968939265 " transform="rotate(192, 400, 400)"></path><path d="M59.00000236511238 450.69573470074766C71.9166693901294 436.551984308354 95.16667003516005 384.93698287638597 121.00000408519412 382.80573281725816C146.83333813522813 380.67448275813035 157.1666717552418 442.20948446531145 183.0000058052758 440.46573441693414C208.83333985530987 438.7219843685569 219.1666734753235 375.4044826119234 245.00000752535757 374.4357325850471C270.8333415753916 373.46698255817086 281.1666751954052 441.04698443305995 307.0000092454393 435.815734287928C332.83334329547336 430.58448414279616 343.16667691548696 347.775731845412 369.00001096552097 349.325731888414C394.83334501555504 350.87573193141606 405.1666786355687 434.3432342470761 431.0000126856027 443.25573449433784C456.8333467356368 452.1682347415996 467.16668035565044 393.0744831021467 493.0000144056845 392.1057330752704C518.8333484557185 391.13698304839414 529.1666820757321 441.12448443521004 555.0000161257661 438.6057343653317C580.8333501758003 436.08698429545336 591.1666837958139 382.14698279898226 617.000017845848 380.01573273985446C642.8333518958821 377.8844826807267 653.1666855158957 424.1132339632626 679.0000195659296 428.3757340815182C704.8333536159636 432.6382341997739 728.0833542609943 406.2882334687391 741.0000212860114 400.47573330748145 " transform="rotate(186, 400, 400)"></path><path d="M70.00000228881842 449.0603977722394C82.50000263560909 435.37289739250366 105.00000325983231 385.42289600672814 130.00000395341365 383.3603959495076C155.00000464699497 381.2978958922872 165.00000492442751 440.84789754439794 190.00000561800886 439.1603974975812C215.0000063115902 437.47289745076444 225.00000658902275 376.1978957507966 250.00000728260406 375.2603957247873C275.00000797618543 374.322895698778 285.000008253618 439.7228975131868 310.0000089471993 434.66039737273655C335.00000964078066 429.59789723228636 345.00000991821315 349.46039500901134 370.0000106117945 350.96039505062623C395.00001130537584 352.46039509224113 405.0000115828084 433.2353973332024 430.0000122763897 441.86039757248795C455.000012969971 450.4853978117735 465.0000132474036 393.2978962252062 490.00001394098496 392.36039619919694C515.0000146345662 391.4228961731876 525.0000149119987 439.79789751526755 550.0000156055801 437.3603974476433C575.0000162991615 434.92289738001915 585.000016576594 382.7228959318213 610.0000172701755 380.66039587460085C635.0000179637568 378.5978958173804 645.0000182411893 423.33539705854423 670.0000189347705 427.46039717298515C695.0000196283519 431.5853972874261 717.5000202525752 406.08539657997306 730.0000205993658 400.4603964239173 " transform="rotate(180, 400, 400)"></path><path d="M81.00000221252448 447.42505321433663C93.08333588108879 434.1938028472587 114.83333648450457 385.9088015076757 139.0000038216332 383.9150514523626C163.1666711587618 381.9213013970495 172.83333809361326 439.4863029940899 197.0000054307419 437.8550529488337C221.16667276787052 436.2238029035775 230.833339702722 376.99130126027524 255.00000703985063 376.08505123513294C279.16667437697924 375.1788012099906 288.83334131183074 438.3988029639191 313.00000864895935 433.50505282815055C337.16667598608797 428.61130269238197 346.8333429209394 351.1450505432162 371.000010258068 352.5950505834439C395.16667759519663 354.0450506236716 404.8333445300481 432.1275527899342 429.00001186717674 440.4650530212436C453.16667920430535 448.80255325255297 462.8333461391569 393.5213017188712 487.00001347628546 392.6150516937289C511.1666808134141 391.7088016685866 520.8333477482655 438.4713029659305 545.0000150853941 436.11505290056044C569.1666824225229 433.7588028351904 578.8333493573742 383.29880143526583 603.000016694503 381.3050513799527C627.1666840316316 379.3113013246396 636.8333509664831 422.55755252443123 661.0000183036116 426.5450526350575C685.1666856407402 430.5325527456837 706.9166862441559 405.88255206181253 719.0000199127203 400.44505191095857 " transform="rotate(174, 400, 400)"></path><path d="M92.00000213623053 445.78970865643385C103.6666691265685 433.0147083020138 124.66666970917683 386.3947070086233 148.00000368985275 384.46970695521753C171.33333767052864 382.54470690181176 180.666671262799 438.12470844378186 204.00000524347493 436.54970840008616C227.33333922415085 434.9747083563906 236.66667281642125 377.7847067697539 260.00000679709717 376.90970674547856C283.33334077777306 376.0347067212032 292.66667437004344 437.0747084146514 316.0000083507193 432.3497082835645C339.3333423313953 427.62470815247764 348.66667592366565 352.829706077421 372.00000990434154 354.2297061162616C395.3333438850174 355.6297061551021 404.6666774772878 431.019708246666 428.00001145796375 439.0697084699992C451.3333454386397 447.11970869333237 460.6666790309101 393.74470721253624 484.000013011586 392.86970718826086C507.33334699226185 391.99470716398554 516.6666805845323 437.1447084165934 540.0000145652082 434.86970835347756C563.3333485458841 432.5947082903616 572.6666821381544 383.8747069387103 596.0000161188304 381.9497068853045C619.3333500995063 380.0247068318988 628.6666836917767 421.77970799031834 652.0000176724526 425.6297080971299C675.3333516531285 429.4797082039414 696.3333522357368 405.67970754365194 708.0000192260748 400.4297073979999 " transform="rotate(168, 400, 400)"></path><path d="M103.00000205993659 444.1543679132284C114.25000237204819 431.8356175714662 134.5000029338491 386.8806163242682 157.00000355807228 385.0243662727698C179.50000418229547 383.16811622127136 188.5000044319848 436.763117708171 211.00000505620795 435.24436766603594C233.50000568043117 433.7256176239009 242.50000593012047 378.5781160939298 265.0000065543437 377.73436607052145C287.5000071785669 376.8906160471131 296.5000074282562 435.75061768008095 319.0000080524794 431.19436755367576C341.5000086767026 426.6381174272706 350.50000892639184 354.5143654263231 373.00000955061506 355.8643654637765C395.5000101748383 357.2143655012299 404.5000104245276 429.91186751809505 427.00001104875076 437.6743677334521C449.500011672974 445.4368679488091 458.5000119226633 393.9681165208985 481.00001254688647 393.12436649749014C503.50001317110963 392.28061647408174 512.5000134207988 435.81811768195365 535.0000140450221 433.6243676210919C557.5000146692455 431.43061756023013 566.5000149189347 384.4506162568521 589.0000155431579 382.59436620535365C611.5000161673811 380.73811615385523 620.5000164170704 421.00186727090266 643.0000170412935 424.7143673738995C665.5000176655168 428.42686747689635 685.7500182273176 405.4768668401887 697.0000185394292 400.4143666997384 " transform="rotate(162, 400, 400)"></path><path d="M114.00000198364263 442.5190119112338C124.83333561752788 430.65651158212944 144.33333615852135 387.366510381124 166.0000034262918 385.5790103315329C187.6666706940623 383.79151028194184 196.3333376011705 435.4015117137712 218.000004868941 433.93901167319666C239.6666721367115 432.4765116326222 248.3333390438197 379.3715101593167 270.0000063115902 378.55901013677527C291.6666735793607 377.7465101142339 300.33334048646896 434.4265116867215 322.0000077542394 430.03901156499796C343.6666750220099 425.65151144327444 352.3333419291181 356.19900951643615 374.0000091968886 357.49900955250234C395.6666764646591 358.7990095885686 404.3333433717673 428.80401153073507 426.0000106395378 436.2790117381159C447.66667790730827 443.7540119454967 456.3333448144165 394.1915105704717 478.00001208218697 393.3790105479303C499.66667934995746 392.56651052538894 508.33334625706556 434.49151168852484 530.0000135248362 432.3790116299172C551.6666807926067 430.2665115713096 560.3333476997147 385.0265103162048 582.0000149674854 383.2390102666137C603.6666822352558 381.45151021702264 612.3333491423641 420.2240112926979 634.0000164101345 423.7990113918801C655.666683677905 427.3740114910622 675.1666842188985 405.2740108779363 686.0000178527837 400.39901074268795 " transform="rotate(156, 400, 400)"></path><path d="M125.00000190734869 440.883667353331C135.41666886300757 429.4774170368845 154.1666693831936 387.85241588207157 175.00000329451137 386.1336658343879C195.83333720582914 384.41491578670417 204.16667077035626 434.03991716346314 225.00000468167406 432.6336671244492C245.83333859299182 431.22741708543526 254.16667215751897 380.16491566879535 275.00000606883674 379.3836656471209C295.8333399801545 378.6024156254465 304.16667354468166 433.1024171374538 325.0000074559994 428.88366702041196C345.8333413673172 424.6649169033701 354.16667493184434 357.88366505064096 375.00000884316205 359.13366508532005C395.8333427544799 360.3836651199991 404.166676319007 427.6961669874669 425.0000102303248 434.8836671868715C445.83334414164256 442.0711673862761 454.1666777061697 394.4149160641367 475.0000116174875 393.63366604246227C495.83334552880524 392.85241602078787 504.1666790933323 433.16491713918776 525.0000130046501 431.1336670828343C545.8333469159679 429.1024170264808 554.166680480495 385.60241581964925 575.0000143918128 383.8836657719656C595.8333483031306 382.16491572428185 604.1666818676579 419.44616675858504 625.0000157789755 422.88366685395243C645.8333496902933 426.3211669493199 664.5833502104794 405.07116635977576 675.0000171661382 400.3836662297293 " transform="rotate(150, 400, 400)"></path><path d="M136.00000183105476 439.2483151660337C146.00000210848728 428.2983148622451 164.00000260786584 388.3383137536247 184.00000316273093 386.6883137078483C204.00000371759597 385.0383136620719 212.000003939542 432.6783149837605 232.00000449440708 431.32831494630716C252.00000504927215 429.97831490885375 260.0000052712182 380.95831354887946 280.0000058260833 380.20831352807204C300.0000063809483 379.45831350726456 308.00000660289436 431.7783149587916 328.00000715775946 427.72831484643143C348.00000771262455 423.67831473407125 356.00000793457053 359.5683129554513 376.0000084894356 360.76831298874316C396.00000904430067 361.9683130220351 404.0000092662467 426.5883148148041 424.0000098211118 433.4883150062326C444.0000103759769 440.38831519766103 452.0000105979229 394.6383139284072 472.000011152788 393.88831390759975C492.000011707653 393.1383138867923 500.00001192959905 431.8383149604562 520.0000124844642 429.88831490635687C540.0000130393292 427.9383148522575 548.0000132612753 386.17831369369924 568.0000138161404 384.52831364792286C588.0000143710055 382.8783136021465 596.0000145929514 418.66831459507756 616.0000151478165 421.96831468663026C636.0000157026815 425.268314778183 654.00001620206 404.86831421222064 664.0000164794926 400.368314087376 " transform="rotate(144, 400, 400)"></path><path d="M146.9999864959717 437.6129744228282C156.5833200951779 427.1192241316974 173.83332057374906 388.8242230692695 192.9999877721614 387.24297302540054C212.16665497057375 385.6617229815315 219.8333218499387 431.31672424814974 238.99998904835104 430.02297421225694C258.1666562467634 428.7292241763641 265.8333231261284 381.75172287305537 284.9999903245407 381.0329728531149C304.1666575229531 380.3142228331744 311.83332440231806 430.4542242242212 330.9999916007304 426.5729741165427C350.1666587991428 422.6917240088642 357.83332567850766 361.25297230435336 376.99999287692003 362.40297233625813C396.1666600753324 363.55297236816284 403.8333269546974 425.4804740862332 422.99999415310975 432.09297426968544C442.1666613515221 438.7054744531377 449.83332823088705 394.8617232367694 468.9999954292994 394.142973216829C488.16666262771173 393.42422319688853 495.83332950707666 430.5117242258164 514.9999967054891 428.6429741739712C534.1666639039015 426.774224122126 541.8333307832664 386.754223011841 560.9999979816788 385.172972967972C580.1666651800912 383.59172292410295 587.8333320594561 417.8904738756619 606.9999992578685 421.05297396339995C626.1666664562807 424.21547405113796 643.4166669348518 404.6654735087574 653.000000534058 400.3529733891146 " transform="rotate(138, 400, 400)"></path><path d="M157.99998641967778 435.97762223553093C167.1666533406576 425.940121957058 183.6666537984213 389.3101209408226 201.99998764038094 387.79762089886094C220.33332148234058 386.28512085689925 227.66665501912445 429.95512206844717 245.9999888610841 428.71762203411487C264.33332270304373 427.4801219997826 271.6666562398276 382.5451207531395 289.99999008178725 381.857620734066C308.3333239237469 381.17012071499255 315.6666574605308 429.130122045559 333.99999130249046 425.41762194256216C352.3333251444501 421.7051218395653 359.6666586812339 362.93762020916364 377.99999252319355 364.03762023968125C396.3333263651532 365.1376202701988 403.6666599019371 424.3726219135704 421.99999374389677 430.6976220890465C440.3333275858564 437.0226222645226 447.6666611226403 395.08512110103993 465.9999949645999 394.3976210819664C484.3333288065595 393.71012106289294 491.6666623433434 429.18512204708486 509.9999961853031 427.3976219974938C528.3333300272627 425.6101219479027 535.6666635640465 387.33012088589095 553.9999974060063 385.8176208439293C572.3333312479659 384.30512080196763 579.6666647847499 417.1126217121544 597.9999986267094 420.1376217960778C616.3333324686689 423.1626218800011 632.8333329264326 404.46262136120225 641.9999998474125 400.33762124676133 " transform="rotate(132, 400, 400)"></path><path d="M168.99998634338385 434.34227767762815C177.7499865861373 424.7610274118131 193.49998702309355 389.7960264417702 210.9999875086005 388.3522764017159C228.4999879941074 386.9085263616616 235.49998818831023 428.5935275181391 252.99998867381714 427.4122774853674C270.49998915932406 426.23102745259564 277.49998935352687 383.3385262626182 294.9999898390338 382.68227624441164C312.4999903245407 382.02602622620515 319.4999905187435 427.8060274962913 336.99999100425043 424.26227739797616C354.49999148975735 420.718527299661 361.49999168396016 364.6222757433685 378.9999921694671 365.6722757724989C396.49999265497405 366.72227580162934 403.4999928491768 423.2647773703022 420.9999933346837 429.3022775378021C438.4999938201907 435.339777705302 445.4999940143935 395.3085265947049 462.9999944999004 394.65227657649837C480.4999949854073 393.9960265582919 487.4999951796101 427.85852749774784 504.99999566511707 426.1522774504109C522.4999961506239 424.44602740307397 529.4999963448267 387.90602638933547 546.9999968303338 386.4622763492811C564.4999973158407 385.01852630922684 571.4999975100434 416.33477717804146 588.9999979955503 419.22227725815014C606.4999984810572 422.10977733825877 622.2499989180135 404.2597768430417 630.999999160767 400.32227673380265 " transform="rotate(126, 400, 400)"></path><path d="M179.9999862670899 432.70692167563357C188.33331983161702 423.5819214224764 203.3333202477658 390.28192049862605 219.99998737682003 388.90692046047906C236.66665450587425 387.53192042233206 243.33332135749595 427.23192152373923 259.9999884865502 426.1069214925281C276.6666556156044 424.9819214613169 283.33332246722614 384.13192032800504 299.99998959628033 383.50692031066546C316.6666567253345 382.88192029332595 323.3333235769563 426.4819215029318 339.9999907060105 423.1069214092983C356.6666578350647 419.73192131566486 363.3333246866864 366.3069198334815 379.9999918157406 367.3069198612248C396.6666589447948 368.306919888968 403.33332579641655 422.15692138294224 419.9999929254708 427.90692154246597C436.666660054525 433.65692170198963 443.3333269061467 395.5319206442781 459.9999940352009 394.9069206269386C476.6666611642551 394.28192060959907 483.33332801587676 426.531921504319 499.99999514493106 424.9069214592362C516.6666622739854 423.2819214141534 523.333329125607 388.4819204486882 539.9999962546613 387.1069204105412C556.6666633837156 385.7319203723942 563.3333302353371 415.5569211998368 579.9999973643913 418.3069212761307C596.6666644934455 421.05692135242464 611.6666649095944 404.05692088078933 619.9999984741214 400.3069207767521 " transform="rotate(120, 400, 400)"></path><path d="M190.99998619079594 431.07159237651985C198.9166530770967 422.4028421360205 213.16665347243807 390.7678412583627 228.99998724503956 389.46159122212305C244.83332101764108 388.15534118588346 251.1666545266817 425.87034223222025 266.99998829928325 424.8015922025696C282.8333220718847 423.73284217291905 289.16665558092535 384.92534109627275 304.99998935352687 384.3315910798002C320.83332312612833 383.7378410633276 327.166656635169 425.1578422124532 342.9999904077705 421.95159212350137C358.833324180372 418.7453420345496 365.1666576894126 367.9915906264754 380.9999914620141 368.9415906528315C396.8333252346156 369.8915906791876 403.1666587436563 421.0490920984631 418.99999251625775 426.5115922500106C434.83332628885927 431.97409240155815 441.1666597978999 395.75534139673215 456.99999357050143 395.1615913802596C472.8333273431029 394.56784136378707 479.1666608521435 425.205342213771 494.99999462474506 423.66159217094236C510.8333283973466 422.1178421281137 517.1666619063872 389.0578412109217 532.9999956789886 387.7515911746821C548.8333294515903 386.4453411384425 555.1666629606309 414.7790919245129 570.9999967332324 417.39159199699213C586.8333305058338 420.0040920694714 601.0833309011753 403.85409162141787 608.9999977874759 400.2915915225825 " transform="rotate(114, 400, 400)"></path><path d="M201.999986114502 429.43623637452527C209.49998632257638 421.2237361466838 222.99998669711033 391.2537353152185 237.99998711325912 390.01623528088624C252.99998752940792 388.77873524655394 258.99998769586745 424.5087362378204 273.99998811201624 423.49623620973034C288.9999885281651 422.4837361816403 294.99998869462456 385.7187351616596 309.9999891107734 385.15623514605403C324.9999895269222 384.5937351304484 330.99998969338174 423.8337362190937 345.99999010953053 420.7962361348236C360.9999905256793 417.75873605055347 366.9999906921388 369.67623471658845 381.99999110828765 370.57623474155736C396.99999152443644 371.4762347665263 402.99999169089597 419.9412361111031 417.99999210704476 425.11623625467445C432.99999252319355 430.29123639824576 438.99999268965314 395.9787354463054 453.99999310580193 395.41623543069977C468.9999935219507 394.8537354150942 474.9999936884102 423.87873622034215 489.99999410455905 422.4162361797676C504.9999945207079 420.9537361391931 510.9999946871674 389.6337352702744 525.9999951033162 388.3962352359422C540.9999955194651 387.1587352016099 546.9999956859245 414.00123594630816 561.9999961020733 416.4762360149727C576.9999965182221 418.9512360836373 590.499996892756 403.6512356591655 597.9999971008303 400.27623556553203 " transform="rotate(108, 400, 400)"></path><path d="M212.99998603820805 427.80089753866844C220.08331956805608 420.0446473234848 232.8333199217826 391.739646538212 246.99998698147868 390.57089650578706C261.16665404117475 389.40214647336217 266.8333208650532 423.1471474095582 280.9999879247493 422.19089738302876C295.16665498444536 421.2346473564993 300.83332180832383 386.51214639318414 314.99998886801995 385.98089637844555C329.166655927716 385.44964636370696 334.83332275159444 422.5096473918719 348.99998981129056 419.64089731228347C363.1666568709866 416.772147232695 368.83332369486504 371.36089597283916 382.99999075456117 372.21089599642096C397.16665781425723 373.0608960200027 402.8333246381357 418.8333972898808 416.9999916978318 423.7208974254759C431.1666587575279 428.60839756107106 436.8333255814063 396.2021466620163 450.99999264110244 395.6708966472777C465.1666597007985 395.1396466325391 470.8333265246769 422.55214739305103 484.99999358437304 421.17089735473064C499.16666064406917 419.78964731641025 504.8333274679476 390.20964649576484 518.9999945276437 389.0408964633399C533.1666615873398 387.872146430915 538.8333284112182 413.2233971342411 552.9999954709143 415.56089719909096C567.1666625306103 417.89839726394086 579.9166628843368 403.44839686305085 586.9999964141849 400.2608967746192 " transform="rotate(102, 400, 400)"></path><path d="M223.9999859619141 426.1655491660684C230.6666528135358 418.8655489635426 242.66665314645485 392.22554822446233 255.99998684969822 391.1255481939448C269.3333205529416 390.0255481634272 274.66665403423895 421.7855490445529 287.99998773748234 420.885549019584C301.3333214407257 419.9855489946151 306.6666549220231 387.3055480879655 319.99998862526644 386.8055480740939C333.33332232850984 386.3055480602223 338.6666558098072 421.185549027907 351.99998951305054 418.4855489530002C365.33332321629393 415.78554887809344 370.6666566975913 373.04554769234676 383.9999904008347 373.84554771454134C397.3333241040781 374.6455477367359 402.66665758537545 417.72554893191534 415.99999128861884 422.3255490595343C429.3333249918621 426.92554918715325 434.66665847315954 396.425548340984 447.9999921764029 395.9255483271124C461.3333258796463 395.42554831324077 466.6666593609436 421.2255490290167 479.99999306418704 419.9255489929505C493.33332676743044 418.62554895688424 498.6666602487278 390.78554818451204 511.99999395197113 389.6855481539945C525.3333276552146 388.5855481234769 530.666661136512 412.4455487854309 543.9999948397553 414.6455488464661C557.3333285429986 416.84554890750127 569.3333288759177 403.245548530193 575.9999957275394 400.24554844696326 " transform="rotate(96, 400, 400)"></path><path d="M234.99998588562016 424.5301988861197C241.2499860590155 417.68644869625183 252.49998637112708 392.71144800336407 264.99998671791775 391.6801979747538C277.4999870647084 390.6489479461436 282.49998720342467 420.42394877219897 294.99998755021534 419.5801987487906C307.499987897006 418.7364487253822 312.4999880357223 388.09894787539827 324.999988382513 387.63019786239363C337.49998872930365 387.161447849389 342.49998886801995 419.8614487565934 354.9999892148106 417.3301986863683C367.4999895616013 414.79894861614315 372.49998970031754 374.73019750450567 384.9999900471082 375.4801975253131C397.4999903938989 376.23019754612056 402.49999053261513 416.6176986666012 414.9999908794058 420.930198786244C427.49999122619647 425.24269890588675 432.4999913649127 396.64894811260314 444.9999917117034 396.18019809959844C457.49999205849406 395.7114480865938 462.4999921972103 419.8989487576338 474.999992544001 418.68019872382166C487.4999928907917 417.46144869000955 492.49999302950795 391.36144796591066 504.9999933762987 390.33019793730045C517.4999937230893 389.2989479086902 522.4999938618056 411.6676985292721 534.9999942085963 413.7301985864926C547.4999945553868 415.79269864371304 558.7499948674986 403.04269828998656 564.9999950408939 400.2301982119586 " transform="rotate(90, 400, 400)"></path><path d="M245.9999858093262 422.8948524208683C251.83331930449518 416.50735224365826 262.33331959579937 393.197351596963 273.9999865861373 392.23485157026016C285.66665357647526 391.27235154355725 290.33332037261044 419.0623523145423 301.9999873629484 418.27485229269445C313.6666543532864 417.48735227084666 318.3333211494216 388.89235147752834 329.9999881397595 388.4548514653907C341.66665513009747 388.01735145325296 346.33332192623266 418.53735229997704 357.9999889165706 416.1748522344336C369.66665590690855 413.8123521688902 374.3333227030438 376.41485113136184 385.99998969338174 377.11485115078216C397.6666566837197 377.8148511702024 402.3333234798548 415.5098522159844 413.9999904701928 419.534852327651C425.6666574605308 423.5598524393176 430.33332425666595 396.8723516989195 441.99999124700395 396.4348516867818C453.66665823734184 395.9973516746441 458.3333250334771 418.57235230094807 469.999992023815 417.43485226939015C481.66665901415297 416.2973522378322 486.33332581028816 391.93735156200654 497.99999280062616 390.9748515353036C509.6666597909641 390.0123515086008 514.3333265870992 410.88985208781054 525.9999935774372 412.8148521412163C537.6666605677751 414.7398521946221 548.1666608590793 402.83985186447734 553.9999943542483 400.2148517916513 " transform="rotate(84, 400, 400)"></path><path d="M256.99998573303225 421.25950977031414C262.41665254997486 415.328259605762 272.1666528204716 393.6832590052593 282.9999864543569 392.7895089804637C293.8333200882421 391.8957589556682 298.1666535417962 417.7007596715829 308.99998717568144 416.9695096512956C319.83332080956666 416.23825963100836 324.1666542631208 389.6857588943556 334.999987897006 389.27950888308493C345.8333215308913 388.8732588718142 350.1666549844454 417.213259658058 360.99998861833063 415.01950959719625C371.8333222522159 412.8257595363345 376.16665570577 378.09950857291534 386.99998933965526 378.74950859094844C397.8333229735405 379.3995086089816 402.1666564270946 414.40200958006477 412.9999900609798 418.1395096837552C423.83332369486504 421.8770097874456 428.1666571484192 397.0957590999331 438.9999907823044 396.6895090886624C449.83332441618967 396.28325907739173 454.16665786974374 417.2457596589597 464.999991503629 416.18950962965584C475.8333251375143 415.13325960035206 480.1666585910683 392.51325897279963 490.99999222495364 391.6195089480041C501.83332585883886 390.72575892320856 506.166659312393 410.1120094610462 516.9999929462782 411.8995095106373C527.8333265801634 413.6870095602284 537.5833268506601 402.63700925366544 542.9999936676028 400.1995091860412 " transform="rotate(78, 400, 400)"></path><path d="M267.9999856567383 419.6241594903655C272.99998579545456 414.1491593384712 281.9999860451438 394.16915878416097 291.99998632257643 393.3441587612728C301.9999866000089 392.5191587383846 305.99998671098194 416.3391593992289 315.9999869884145 415.6641593805022C325.99998726584704 414.9891593617755 329.99998737682006 390.47915868178836 339.99998765425255 390.10415867138465C349.9999879316851 389.72915866098094 353.9999880426581 415.88915938674444 363.99998832009067 413.86415933056435C373.9999885975232 411.83915927438426 377.9999887084962 379.78415838507425 387.9999889859287 380.38415840172024C397.9999892633613 380.9841584183662 401.9999893743343 413.2941593147507 411.99998965176684 416.74415941046493C421.9999899291994 420.1941595061791 425.9999900401724 397.3191588715522 435.9999903176049 396.9441588611485C445.99999059503745 396.56915885074477 449.99999070601046 415.9191593875767 459.999990983443 414.94415936052707C469.99999126087556 413.96915933347736 473.9999913718486 393.08915875419825 483.9999916492811 392.2641587313101C493.9999919267137 391.43915870842187 497.99999203768664 409.3341592048874 507.9999923151192 410.98415925066377C517.9999925925517 412.63415929644015 526.999992842241 402.43415901345895 531.9999929809572 400.18415895103664 " transform="rotate(72, 400, 400)"></path><path d="M279.0000008392334 417.9888130251141C283.58333429972333 412.9700628858776 291.8333345286052 394.6550623777599 301.000001449585 393.8988123567791C310.1666683705648 393.1425623357983 313.8333351389567 414.9775629415722 323.0000020599366 414.3588129244061C332.16666898091637 413.7400629072399 335.83333574930833 391.2725622839184 345.00000267028815 390.92881227438164C354.166669591268 390.5850622648449 357.83333635965994 414.56506293012814 367.00000328063976 412.7088128786297C376.1666702016196 410.8525628271313 379.8333369700115 381.4688120119305 389.0000038909913 382.01881202718926C398.16667081197113 382.56881204244803 401.8333375803631 412.18631286413387 411.0000045013429 415.3488129518719C420.16667142232274 418.51131303960995 423.8333381907147 397.5425624578686 433.00000511169446 397.19881244833186C442.1666720326743 396.8550624387951 445.83333880106625 414.59256293089106 455.00000572204607 413.69881290609555C464.1666726430259 412.8050628813 467.8333394114178 393.66506235029414 477.0000063323977 392.90881232931326C486.1666732533775 392.15256230833245 489.83334002176946 408.55631276342586 499.0000069427492 410.0688128053875C508.166673863729 411.5813128473492 516.4166740926108 402.2313125879498 521.0000075531008 400.1688125307293 " transform="rotate(66, 400, 400)"></path><path d="M290.00000076293946 416.35346465251405C294.16666754520304 411.79096452593546 301.66666775327747 395.1409640640103 310.00000131780456 394.4534640449368C318.33333488233166 393.7659640258633 321.6666683081425 413.6159645765669 330.0000018726696 413.0534645609613C338.33333543719675 412.4909645453557 341.6666688630076 392.06596397869976 350.0000024275347 391.75346397003C358.3333359920618 391.44096396136024 361.66666941787264 413.24096456616314 370.0000029823998 411.55346451934645C378.3333365469269 409.8659644725297 381.66666997273774 383.153463731438 390.00000353726483 383.65346374530964C398.3333371017919 384.15346375918125 401.66667052760283 411.07846450616836 410.0000040921299 413.95346458593025C418.333337656657 416.8284646656921 421.6666710824679 397.7659641368363 430.00000464699497 397.45346412816656C438.3333382115221 397.1409641194968 441.6666716373329 413.2659645668568 450.00000520186006 412.45346454431535C458.3333387663872 411.640964521774 461.666672192198 394.24096403904133 470.00000575672516 393.55346401996786C478.3333393212523 392.8659640008944 481.6666727470631 407.77846441461566 490.0000063115902 409.1534644527626C498.3333398761173 410.5284644909096 505.8333400841917 402.02846425509193 510.00000686645524 400.1534642030733 " transform="rotate(60, 400, 400)"></path><path d="M301.00000068664554 414.71812009461127C304.75000079068275 410.6118699806905 311.5000009779497 395.6268695649579 319.00000118602406 395.00811954779175C326.5000013940985 394.38936953062563 329.5000014773283 412.2543700262588 337.00000168540265 411.7481200122138C344.5000018934771 411.2418699981688 347.5000019767068 392.85936948817846 355.00000218478124 392.5781194803756C362.50000239285566 392.29686947257284 365.5000024760854 411.9168700168955 373.00000268415977 410.39811997476045C380.5000028922342 408.87936993262537 383.50000297546393 384.83811926564283 391.00000318353835 385.28811927812734C398.5000033916127 385.7381192906118 401.5000034748425 409.9706199629002 409.00000368291694 412.5581200346858C416.5000038909913 415.14562010647154 419.5000039742211 397.9893696305013 427.00000418229547 397.7081196226985C434.5000043903699 397.42686961489574 437.50000447359963 411.9393700175197 445.00000468167406 411.2081199972325C452.5000048897485 410.4768699769452 455.5000049729782 394.81686954248585 463.00000518105264 394.1981195253197C470.50000538912707 393.5793695081536 473.5000054723568 407.0006198805027 481.0000056804312 408.238119914835C488.5000058885056 409.47561994916725 495.25000607577255 401.8256197369314 499.0000061798097 400.13811969011465 " transform="rotate(54, 400, 400)"></path><path d="M312.00000061035155 413.0827755367085C315.33333403616246 409.43277543544565 321.3333342026219 396.1127750659055 328.0000010542436 395.5627750506467C334.6666679058653 395.0127750353879 337.333334646514 410.89277547595077 344.0000014981357 410.4427754634663C350.6666683497574 409.99277545098187 353.3333350904061 393.6527749976571 360.0000019420278 393.40277499072124C366.6666687936495 393.15277498378543 369.33333553429816 410.5927754676278 376.0000023859198 409.2427754301744C382.6666692375415 407.89277539272103 385.3333359781902 386.5227747998477 392.0000028298119 386.922774810945C398.6666696814336 387.3227748220423 401.33333642208225 408.862775419632 408.00000327370395 411.16277548344146C414.6666701253256 413.46277554725094 417.3333368659743 398.21277512416634 424.000003717596 397.96277511723054C430.6666705692177 397.71277511029473 433.33333730986635 410.6127754681827 440.00000416148805 409.96277545014954C446.66667101310975 409.31277543211644 449.3333377537584 395.39277504593036 456.0000046053801 394.84277503067153C462.6666714570018 394.29277501541276 465.3333381976505 406.22277534638977 472.0000050492722 407.3227753769074C478.66667190089385 408.4227754074249 484.6666720673534 401.6227752187708 488.0000054931642 400.1227751771559 " transform="rotate(48, 400, 400)"></path><path d="M323.0000005340576 411.4474262104342C325.9166672816421 408.25367612182913 331.1666674272942 396.5986757984815 337.0000009224632 396.1174257851301C342.83333441763216 395.63617577177865 345.1666678156997 409.53117615727115 351.0000013108687 409.13742614634725C356.8333348060377 408.74367613542336 359.16666820410535 394.44617573876417 365.0000016992743 394.22742573269534C370.8333351944433 394.0086757266265 373.16666859251086 409.26867614998855 379.00000208767983 408.0874261172168C384.8333355828488 406.9061760844451 387.1666689809164 388.2074255656809 393.0000024760854 388.55742557539105C398.83333597125437 388.90742558510124 401.16666936932194 407.75492610799216 407.00000286449097 409.76742616382546C412.83333635965994 411.77992621965876 415.1666697577275 398.43617584945974 421.0000032528965 398.2174258433909C426.83333674806545 397.9986758373221 429.1666701461331 409.28617615047403 435.00000364130204 408.7174261346951C440.833337136471 408.1486761189161 443.16667053453864 395.96867578100324 449.0000040297076 395.4874257676518C454.8333375248766 395.0061757543004 457.16667092294415 405.44492604390524 463.0000044181131 406.40742607060815C468.8333379132821 407.369926097311 474.0833380589342 401.4199259322387 477.0000048065187 400.10742589582566 " transform="rotate(42, 400, 400)"></path><path d="M334.0000004577637 409.8120816525314C336.5000005271218 407.0745815765842 341.00000065196645 397.08458129942915 346.00000079068275 396.672081287985C351.000000929399 396.2595812765409 353.0000009848855 408.1695816069631 358.0000011236018 407.8320815975997C363.00000126231805 407.4945815882364 365.00000131780456 395.2395812482428 370.0000014565208 395.05208124304096C375.0000015952371 394.8645812378391 377.00000165072356 407.9445816007208 382.00000178943986 406.9320815726308C387.00000192815617 405.91958154454073 389.0000019836426 389.8920810998858 394.00000212235886 390.19208110820875C399.00000226107517 390.4920811165317 401.0000023165617 406.647081564724 406.0000024552779 408.3720816125811C411.0000025939942 410.0970816604382 413.00000264948073 398.6595813431247 418.000002788197 398.4720813379229C423.0000029269132 398.284581332721 425.0000029823998 407.959581601137 430.00000312111604 407.47208158761214C435.0000032598323 406.9845815740873 437.00000331531885 396.54458128444776 442.0000034540351 396.1320812730037C447.00000359275134 395.7195812615596 449.00000364823785 404.66708150979235 454.00000378695415 405.4920815326805C459.0000039256704 406.31708155556873 463.50000405051503 401.2170814140781 466.00000411987315 400.0920813828669 " transform="rotate(36, 400, 400)"></path><path d="M344.99999656677244 408.17673423360566C347.08332995790425 405.89548417031637 350.83333006194147 397.5704839393538 354.99999684420504 397.22673392981704C359.16666362646856 396.8829839202803 360.833330339374 406.80798419563206 364.99999712163753 406.5267341878293C369.1666639039011 406.2454841800265 370.8333306168065 396.0329838966985 374.9999973990701 395.87673389236363C379.16666418133366 395.72048388802875 380.83333089423905 406.6204841904302 384.99999767650263 405.77673416702186C389.16666445876615 404.93298414361345 390.8333311716716 391.57673377306764 394.9999979539351 391.82673378000345C399.1666647361987 392.07673378693926 400.83333144910415 405.53923416043284 404.9999982313677 406.97673420031373C409.16666501363125 408.4142342401947 410.8333317265367 398.8829839757668 414.9999985088002 398.72673397143194C419.1666652910638 398.570483967097 420.8333320039692 406.632984190777 424.99999878623277 406.2267341795063C429.16666556849634 405.8204841682356 430.83333228140174 397.1204839268693 434.9999990636653 396.77673391733254C439.1666658459289 396.4329839077958 440.8333325588343 403.88923411465646 444.9999993410978 404.57673413372993C449.1666661233614 405.26423415280345 452.9166662273986 401.01423403489457 454.99999961853035 400.0767340088853 " transform="rotate(30, 400, 400)"></path><path d="M355.9999964904785 406.54138776835424C357.66666320338396 404.7163877177228 360.6666632866137 398.0563875329527 363.99999671242455 397.78138752532334C367.3333301382354 397.50638751769395 368.66666350855974 405.4463877379754 371.9999969343706 405.22138773173316C375.33333036018144 404.99638772549093 376.6666637305058 396.8263874988285 379.9999971563166 396.7013874953606C383.3333305821275 396.5763874918927 384.6666639524518 405.2963877338139 387.9999973782626 404.6213877150872C391.3333308040735 403.9463876963605 392.66666417439785 393.2613873999238 395.99999760020864 393.46138740547246C399.33333102601955 393.66138741102117 400.6666643963439 404.43138770981597 403.9999978221547 405.58138774172073C407.33333124796553 406.73138777362544 408.6666646182899 399.10638756208317 411.9999980441007 398.98138755861527C415.33333146991157 398.85638755514736 416.6666648402359 405.30638773409135 419.99999826604676 404.9813877250748C423.3333316918576 404.65638771605825 424.66666506218195 397.69638752296515 427.9999984879928 397.42138751533577C431.33333191380365 397.1463875077064 432.666665284128 403.1113876731949 435.99999870993884 403.66138768845366C439.33333213574963 404.2113877037125 442.3333322189794 400.8113876093854 443.9999989318849 400.061387588578 " transform="rotate(24, 400, 400)"></path><path d="M366.9999964141846 404.9060393957542C368.2499964488636 403.53728935778065 370.499996511286 398.5422892192031 372.9999965806441 398.33603921348106C375.49999665000223 398.129789207759 376.49999667774546 404.0847893729701 378.99999674710364 403.9160393682884C381.49999681646176 403.74728936360674 382.49999684420504 397.6197891936099 384.9999969135631 397.526039191009C387.4999969829213 397.43228918840805 388.4999970106645 403.97228936984897 390.9999970800227 403.4660393558039C393.4999971493808 402.9597893417589 394.49999717712404 394.9460391194314 396.99999724648217 395.0960391235929C399.49999731584035 395.2460391277544 400.4999973435836 403.3235393518505 402.9999974129417 404.18603937577905C405.4999974822998 405.04853939970764 406.4999975100431 399.3297892410509 408.9999975794012 399.23603923844996C411.49999764875935 399.14228923584903 412.49999767650263 403.979789370057 414.99999774586075 403.7360393632946C417.4999978152189 403.4922893565322 418.49999784296216 398.2722892117124 420.9999979123203 398.06603920599036C423.4999979816784 397.8597892002683 424.4999980094217 402.3335393243847 426.9999980787798 402.74603933582875C429.49999814813793 403.1585393472729 431.74999821056025 400.6085392765276 432.99999824523934 400.046039260922 " transform="rotate(18, 400, 400)"></path><path d="M378.0000001525879 403.2706910231542C378.8333335090406 402.35819099783845 380.3333335506555 399.0281909054534 382.0000002635609 398.8906909016387C383.66666697646633 398.753190897824 384.3333336616285 402.7231910079647 386.0000003745339 402.6106910048436C387.66666708743935 402.4981910017225 388.3333337726015 398.41319088839134 390.0000004855069 398.3506908866574C391.66666719841237 398.28819088492344 392.33333388357454 402.648191005884 394.00000059647994 402.31069099652063C395.6666673093854 401.9731909871573 396.33333399454756 396.63069083893896 398.00000070745295 396.7306908417133C399.6666674203584 396.8306908444876 400.3333341055206 402.21569099388506 402.000000818426 402.7906910098374C403.6666675313314 403.3656910257898 404.33333421649354 399.5531909200186 406.000000929399 399.49069091828466C407.66666764230445 399.4281909165507 408.33333432746656 402.6531910060227 410.000001040372 402.49069100151445C411.66666775327747 402.3281909970062 412.3333344384396 398.84819090045966 414.00000115134503 398.71069089664496C415.6666678642505 398.5731908928302 416.3333345494126 401.5556909755745 418.00000126231805 401.8306909832039C419.66666797522345 402.1056909908333 421.16666801683834 400.40569094366975 422.00000137329107 400.03069093326604 " transform="rotate(12, 400, 400)"></path><path d="M389.00000007629393 401.6353464652514C389.4166667545203 401.17909645259357 390.1666667753277 399.51409640640105 391.00000013178044 399.44534640449365C391.83333348823317 399.3765964025863 392.1666668308143 401.3615964576567 393.00000018726695 401.3053464560961C393.8333335437197 401.24909645453556 394.16666688630073 399.20659639787 395.00000024275346 399.175346397003C395.8333335992062 399.14409639613604 396.1666669417873 401.3240964566163 397.00000029823997 401.15534645193463C397.8333336546927 400.98659644725296 398.16666699727375 398.3153463731438 399.0000003537265 398.365346374531C399.8333337101792 398.41534637591815 400.16666705276026 401.1078464506168 401.000000409213 401.39534645859305C401.8333337656657 401.68284646656923 402.16666710824677 399.77659641368365 403.0000004646995 399.7453464128167C403.8333338211522 399.7140964119497 404.1666671637333 401.3265964566857 405.000000520186 401.2453464544315C405.83333387663873 401.1640964521774 406.1666672192198 399.4240964039041 407.0000005756725 399.35534640199677C407.83333393212524 399.2865964000894 408.1666672747063 400.7778464414616 409.000000631159 400.91534644527627C409.8333339876117 401.05284644909096 410.5833340084192 400.20284642550916 411.00000068664554 400.0153464203073 " transform="rotate(6, 400, 400)"></path></g></svg>